<mxfile host="app.diagrams.net" agent="Mozilla/5.0 (Windows NT 10.0; Win64; x64) AppleWebKit/537.36 (KHTML, like Gecko) Chrome/133.0.0.0 Safari/537.36" version="26.0.13">
  <diagram name="Page-1" id="c4acf3e9-155e-7222-9cf6-157b1a14988f">
    <mxGraphModel dx="1358" dy="627" grid="1" gridSize="30" guides="1" tooltips="1" connect="1" arrows="1" fold="1" page="1" pageScale="1" pageWidth="1100" pageHeight="850" background="none" math="0" shadow="0">
      <root>
        <mxCell id="0" />
        <mxCell id="1" parent="0" />
        <mxCell id="-idm0U2G1IzuPb4QEbFN-50" value="Direction Commercial" style="swimlane;fontStyle=1;align=center;verticalAlign=top;childLayout=stackLayout;horizontal=1;startSize=26;horizontalStack=0;resizeParent=1;resizeParentMax=0;resizeLast=0;collapsible=1;marginBottom=0;whiteSpace=wrap;html=1;" vertex="1" parent="1">
          <mxGeometry x="470" y="205" width="160" height="86" as="geometry" />
        </mxCell>
        <mxCell id="-idm0U2G1IzuPb4QEbFN-51" value="Commande client" style="text;strokeColor=none;fillColor=none;align=left;verticalAlign=top;spacingLeft=4;spacingRight=4;overflow=hidden;rotatable=0;points=[[0,0.5],[1,0.5]];portConstraint=eastwest;whiteSpace=wrap;html=1;" vertex="1" parent="-idm0U2G1IzuPb4QEbFN-50">
          <mxGeometry y="26" width="160" height="26" as="geometry" />
        </mxCell>
        <mxCell id="-idm0U2G1IzuPb4QEbFN-52" value="" style="line;strokeWidth=1;fillColor=none;align=left;verticalAlign=middle;spacingTop=-1;spacingLeft=3;spacingRight=3;rotatable=0;labelPosition=right;points=[];portConstraint=eastwest;strokeColor=inherit;" vertex="1" parent="-idm0U2G1IzuPb4QEbFN-50">
          <mxGeometry y="52" width="160" height="8" as="geometry" />
        </mxCell>
        <mxCell id="-idm0U2G1IzuPb4QEbFN-53" value="+ method(type): type" style="text;strokeColor=none;fillColor=none;align=left;verticalAlign=top;spacingLeft=4;spacingRight=4;overflow=hidden;rotatable=0;points=[[0,0.5],[1,0.5]];portConstraint=eastwest;whiteSpace=wrap;html=1;" vertex="1" parent="-idm0U2G1IzuPb4QEbFN-50">
          <mxGeometry y="60" width="160" height="26" as="geometry" />
        </mxCell>
        <mxCell id="-idm0U2G1IzuPb4QEbFN-55" value="Usine Montage" style="swimlane;fontStyle=1;align=center;verticalAlign=top;childLayout=stackLayout;horizontal=1;startSize=26;horizontalStack=0;resizeParent=1;resizeParentMax=0;resizeLast=0;collapsible=1;marginBottom=0;whiteSpace=wrap;html=1;" vertex="1" parent="1">
          <mxGeometry x="90" y="213" width="160" height="264" as="geometry" />
        </mxCell>
        <mxCell id="-idm0U2G1IzuPb4QEbFN-56" value="Phase d&#39;usinage" style="text;strokeColor=none;fillColor=none;align=left;verticalAlign=top;spacingLeft=4;spacingRight=4;overflow=hidden;rotatable=0;points=[[0,0.5],[1,0.5]];portConstraint=eastwest;whiteSpace=wrap;html=1;" vertex="1" parent="-idm0U2G1IzuPb4QEbFN-55">
          <mxGeometry y="26" width="160" height="26" as="geometry" />
        </mxCell>
        <mxCell id="-idm0U2G1IzuPb4QEbFN-60" value="Traitement thermique" style="text;strokeColor=none;fillColor=none;align=left;verticalAlign=top;spacingLeft=4;spacingRight=4;overflow=hidden;rotatable=0;points=[[0,0.5],[1,0.5]];portConstraint=eastwest;whiteSpace=wrap;html=1;" vertex="1" parent="-idm0U2G1IzuPb4QEbFN-55">
          <mxGeometry y="52" width="160" height="26" as="geometry" />
        </mxCell>
        <mxCell id="-idm0U2G1IzuPb4QEbFN-61" value="Traitement de surface" style="text;strokeColor=none;fillColor=none;align=left;verticalAlign=top;spacingLeft=4;spacingRight=4;overflow=hidden;rotatable=0;points=[[0,0.5],[1,0.5]];portConstraint=eastwest;whiteSpace=wrap;html=1;" vertex="1" parent="-idm0U2G1IzuPb4QEbFN-55">
          <mxGeometry y="78" width="160" height="26" as="geometry" />
        </mxCell>
        <mxCell id="-idm0U2G1IzuPb4QEbFN-68" value="Montage" style="text;strokeColor=none;fillColor=none;align=left;verticalAlign=top;spacingLeft=4;spacingRight=4;overflow=hidden;rotatable=0;points=[[0,0.5],[1,0.5]];portConstraint=eastwest;whiteSpace=wrap;html=1;" vertex="1" parent="-idm0U2G1IzuPb4QEbFN-55">
          <mxGeometry y="104" width="160" height="26" as="geometry" />
        </mxCell>
        <mxCell id="-idm0U2G1IzuPb4QEbFN-122" value="Réception de l&#39;ensemble des composants requis" style="text;strokeColor=none;fillColor=none;align=left;verticalAlign=top;spacingLeft=4;spacingRight=4;overflow=hidden;rotatable=0;points=[[0,0.5],[1,0.5]];portConstraint=eastwest;whiteSpace=wrap;html=1;" vertex="1" parent="-idm0U2G1IzuPb4QEbFN-55">
          <mxGeometry y="130" width="160" height="50" as="geometry" />
        </mxCell>
        <mxCell id="-idm0U2G1IzuPb4QEbFN-175" value="Livraison de la commande" style="text;strokeColor=none;fillColor=none;align=left;verticalAlign=top;spacingLeft=4;spacingRight=4;overflow=hidden;rotatable=0;points=[[0,0.5],[1,0.5]];portConstraint=eastwest;whiteSpace=wrap;html=1;" vertex="1" parent="-idm0U2G1IzuPb4QEbFN-55">
          <mxGeometry y="180" width="160" height="50" as="geometry" />
        </mxCell>
        <mxCell id="-idm0U2G1IzuPb4QEbFN-57" value="" style="line;strokeWidth=1;fillColor=none;align=left;verticalAlign=middle;spacingTop=-1;spacingLeft=3;spacingRight=3;rotatable=0;labelPosition=right;points=[];portConstraint=eastwest;strokeColor=inherit;" vertex="1" parent="-idm0U2G1IzuPb4QEbFN-55">
          <mxGeometry y="230" width="160" height="8" as="geometry" />
        </mxCell>
        <mxCell id="-idm0U2G1IzuPb4QEbFN-58" value="+ method(type): type" style="text;strokeColor=none;fillColor=none;align=left;verticalAlign=top;spacingLeft=4;spacingRight=4;overflow=hidden;rotatable=0;points=[[0,0.5],[1,0.5]];portConstraint=eastwest;whiteSpace=wrap;html=1;" vertex="1" parent="-idm0U2G1IzuPb4QEbFN-55">
          <mxGeometry y="238" width="160" height="26" as="geometry" />
        </mxCell>
        <mxCell id="-idm0U2G1IzuPb4QEbFN-69" value="Commande" style="swimlane;fontStyle=1;align=center;verticalAlign=top;childLayout=stackLayout;horizontal=1;startSize=26;horizontalStack=0;resizeParent=1;resizeParentMax=0;resizeLast=0;collapsible=1;marginBottom=0;whiteSpace=wrap;html=1;" vertex="1" parent="1">
          <mxGeometry x="670" y="153" width="160" height="138" as="geometry" />
        </mxCell>
        <mxCell id="-idm0U2G1IzuPb4QEbFN-70" value="Prioritaire&lt;div&gt;&lt;br&gt;&lt;/div&gt;" style="text;strokeColor=none;fillColor=none;align=left;verticalAlign=top;spacingLeft=4;spacingRight=4;overflow=hidden;rotatable=0;points=[[0,0.5],[1,0.5]];portConstraint=eastwest;whiteSpace=wrap;html=1;" vertex="1" parent="-idm0U2G1IzuPb4QEbFN-69">
          <mxGeometry y="26" width="160" height="26" as="geometry" />
        </mxCell>
        <mxCell id="-idm0U2G1IzuPb4QEbFN-80" value="&lt;div&gt;Prix&lt;/div&gt;" style="text;strokeColor=none;fillColor=none;align=left;verticalAlign=top;spacingLeft=4;spacingRight=4;overflow=hidden;rotatable=0;points=[[0,0.5],[1,0.5]];portConstraint=eastwest;whiteSpace=wrap;html=1;" vertex="1" parent="-idm0U2G1IzuPb4QEbFN-69">
          <mxGeometry y="52" width="160" height="26" as="geometry" />
        </mxCell>
        <mxCell id="-idm0U2G1IzuPb4QEbFN-155" value="&lt;div&gt;Gros client&lt;/div&gt;" style="text;strokeColor=none;fillColor=none;align=left;verticalAlign=top;spacingLeft=4;spacingRight=4;overflow=hidden;rotatable=0;points=[[0,0.5],[1,0.5]];portConstraint=eastwest;whiteSpace=wrap;html=1;" vertex="1" parent="-idm0U2G1IzuPb4QEbFN-69">
          <mxGeometry y="78" width="160" height="26" as="geometry" />
        </mxCell>
        <mxCell id="-idm0U2G1IzuPb4QEbFN-71" value="" style="line;strokeWidth=1;fillColor=none;align=left;verticalAlign=middle;spacingTop=-1;spacingLeft=3;spacingRight=3;rotatable=0;labelPosition=right;points=[];portConstraint=eastwest;strokeColor=inherit;" vertex="1" parent="-idm0U2G1IzuPb4QEbFN-69">
          <mxGeometry y="104" width="160" height="8" as="geometry" />
        </mxCell>
        <mxCell id="-idm0U2G1IzuPb4QEbFN-72" value="+ method(type): type" style="text;strokeColor=none;fillColor=none;align=left;verticalAlign=top;spacingLeft=4;spacingRight=4;overflow=hidden;rotatable=0;points=[[0,0.5],[1,0.5]];portConstraint=eastwest;whiteSpace=wrap;html=1;" vertex="1" parent="-idm0U2G1IzuPb4QEbFN-69">
          <mxGeometry y="112" width="160" height="26" as="geometry" />
        </mxCell>
        <mxCell id="-idm0U2G1IzuPb4QEbFN-86" value="Direction commerciale" style="swimlane;fontStyle=1;align=center;verticalAlign=top;childLayout=stackLayout;horizontal=1;startSize=26;horizontalStack=0;resizeParent=1;resizeParentMax=0;resizeLast=0;collapsible=1;marginBottom=0;whiteSpace=wrap;html=1;" vertex="1" parent="1">
          <mxGeometry x="290" y="270" width="160" height="236" as="geometry" />
        </mxCell>
        <mxCell id="-idm0U2G1IzuPb4QEbFN-87" value="Introduction de la commande en ordinateur" style="text;strokeColor=none;fillColor=none;align=left;verticalAlign=top;spacingLeft=4;spacingRight=4;overflow=hidden;rotatable=0;points=[[0,0.5],[1,0.5]];portConstraint=eastwest;whiteSpace=wrap;html=1;" vertex="1" parent="-idm0U2G1IzuPb4QEbFN-86">
          <mxGeometry y="26" width="160" height="44" as="geometry" />
        </mxCell>
        <mxCell id="-idm0U2G1IzuPb4QEbFN-92" value="Introduction de la commande en ordinateur" style="text;strokeColor=none;fillColor=none;align=left;verticalAlign=top;spacingLeft=4;spacingRight=4;overflow=hidden;rotatable=0;points=[[0,0.5],[1,0.5]];portConstraint=eastwest;whiteSpace=wrap;html=1;" vertex="1" parent="-idm0U2G1IzuPb4QEbFN-86">
          <mxGeometry y="70" width="160" height="44" as="geometry" />
        </mxCell>
        <mxCell id="-idm0U2G1IzuPb4QEbFN-146" value="Pièce fabriquées par l&#39;entreprise" style="text;strokeColor=none;fillColor=none;align=left;verticalAlign=top;spacingLeft=4;spacingRight=4;overflow=hidden;rotatable=0;points=[[0,0.5],[1,0.5]];portConstraint=eastwest;whiteSpace=wrap;html=1;" vertex="1" parent="-idm0U2G1IzuPb4QEbFN-86">
          <mxGeometry y="114" width="160" height="44" as="geometry" />
        </mxCell>
        <mxCell id="-idm0U2G1IzuPb4QEbFN-147" value="Pièce sous traitées" style="text;strokeColor=none;fillColor=none;align=left;verticalAlign=top;spacingLeft=4;spacingRight=4;overflow=hidden;rotatable=0;points=[[0,0.5],[1,0.5]];portConstraint=eastwest;whiteSpace=wrap;html=1;" vertex="1" parent="-idm0U2G1IzuPb4QEbFN-86">
          <mxGeometry y="158" width="160" height="44" as="geometry" />
        </mxCell>
        <mxCell id="-idm0U2G1IzuPb4QEbFN-88" value="" style="line;strokeWidth=1;fillColor=none;align=left;verticalAlign=middle;spacingTop=-1;spacingLeft=3;spacingRight=3;rotatable=0;labelPosition=right;points=[];portConstraint=eastwest;strokeColor=inherit;" vertex="1" parent="-idm0U2G1IzuPb4QEbFN-86">
          <mxGeometry y="202" width="160" height="8" as="geometry" />
        </mxCell>
        <mxCell id="-idm0U2G1IzuPb4QEbFN-89" value="+ method(type): type" style="text;strokeColor=none;fillColor=none;align=left;verticalAlign=top;spacingLeft=4;spacingRight=4;overflow=hidden;rotatable=0;points=[[0,0.5],[1,0.5]];portConstraint=eastwest;whiteSpace=wrap;html=1;" vertex="1" parent="-idm0U2G1IzuPb4QEbFN-86">
          <mxGeometry y="210" width="160" height="26" as="geometry" />
        </mxCell>
        <mxCell id="-idm0U2G1IzuPb4QEbFN-140" style="edgeStyle=orthogonalEdgeStyle;rounded=0;orthogonalLoop=1;jettySize=auto;html=1;exitX=0.5;exitY=1;exitDx=0;exitDy=0;entryX=0.5;entryY=0;entryDx=0;entryDy=0;" edge="1" parent="1" source="-idm0U2G1IzuPb4QEbFN-125" target="-idm0U2G1IzuPb4QEbFN-138">
          <mxGeometry relative="1" as="geometry" />
        </mxCell>
        <mxCell id="-idm0U2G1IzuPb4QEbFN-125" value="Societe" style="html=1;whiteSpace=wrap;" vertex="1" parent="1">
          <mxGeometry x="450" width="110" height="30" as="geometry" />
        </mxCell>
        <mxCell id="-idm0U2G1IzuPb4QEbFN-137" style="edgeStyle=orthogonalEdgeStyle;rounded=0;orthogonalLoop=1;jettySize=auto;html=1;exitX=0.75;exitY=1;exitDx=0;exitDy=0;entryX=0.25;entryY=0;entryDx=0;entryDy=0;" edge="1" parent="1" source="-idm0U2G1IzuPb4QEbFN-130" target="-idm0U2G1IzuPb4QEbFN-55">
          <mxGeometry relative="1" as="geometry" />
        </mxCell>
        <mxCell id="-idm0U2G1IzuPb4QEbFN-130" value="Usine" style="html=1;whiteSpace=wrap;" vertex="1" parent="1">
          <mxGeometry x="70" y="60" width="110" height="30" as="geometry" />
        </mxCell>
        <mxCell id="-idm0U2G1IzuPb4QEbFN-132" value="Usine" style="swimlane;fontStyle=0;childLayout=stackLayout;horizontal=1;startSize=26;fillColor=none;horizontalStack=0;resizeParent=1;resizeParentMax=0;resizeLast=0;collapsible=1;marginBottom=0;whiteSpace=wrap;html=1;" vertex="1" parent="1">
          <mxGeometry y="120" width="90" height="52" as="geometry" />
        </mxCell>
        <mxCell id="-idm0U2G1IzuPb4QEbFN-133" value="+ field: type" style="text;strokeColor=none;fillColor=none;align=left;verticalAlign=top;spacingLeft=4;spacingRight=4;overflow=hidden;rotatable=0;points=[[0,0.5],[1,0.5]];portConstraint=eastwest;whiteSpace=wrap;html=1;" vertex="1" parent="-idm0U2G1IzuPb4QEbFN-132">
          <mxGeometry y="26" width="90" height="26" as="geometry" />
        </mxCell>
        <mxCell id="-idm0U2G1IzuPb4QEbFN-136" style="edgeStyle=orthogonalEdgeStyle;rounded=0;orthogonalLoop=1;jettySize=auto;html=1;exitX=0.25;exitY=1;exitDx=0;exitDy=0;entryX=0.333;entryY=0;entryDx=0;entryDy=0;entryPerimeter=0;" edge="1" parent="1" source="-idm0U2G1IzuPb4QEbFN-130" target="-idm0U2G1IzuPb4QEbFN-132">
          <mxGeometry relative="1" as="geometry" />
        </mxCell>
        <mxCell id="-idm0U2G1IzuPb4QEbFN-143" style="edgeStyle=orthogonalEdgeStyle;rounded=0;orthogonalLoop=1;jettySize=auto;html=1;exitX=0.25;exitY=1;exitDx=0;exitDy=0;" edge="1" parent="1" source="-idm0U2G1IzuPb4QEbFN-138">
          <mxGeometry relative="1" as="geometry">
            <mxPoint x="360" y="150" as="targetPoint" />
          </mxGeometry>
        </mxCell>
        <mxCell id="-idm0U2G1IzuPb4QEbFN-138" value="Direction" style="html=1;whiteSpace=wrap;" vertex="1" parent="1">
          <mxGeometry x="385" y="60" width="110" height="30" as="geometry" />
        </mxCell>
        <mxCell id="-idm0U2G1IzuPb4QEbFN-142" style="edgeStyle=orthogonalEdgeStyle;rounded=0;orthogonalLoop=1;jettySize=auto;html=1;exitX=0;exitY=0.25;exitDx=0;exitDy=0;entryX=0.182;entryY=0;entryDx=0;entryDy=0;entryPerimeter=0;" edge="1" parent="1" source="-idm0U2G1IzuPb4QEbFN-125" target="-idm0U2G1IzuPb4QEbFN-130">
          <mxGeometry relative="1" as="geometry" />
        </mxCell>
        <mxCell id="-idm0U2G1IzuPb4QEbFN-144" style="edgeStyle=orthogonalEdgeStyle;rounded=0;orthogonalLoop=1;jettySize=auto;html=1;exitX=0.75;exitY=1;exitDx=0;exitDy=0;entryX=0.161;entryY=0.043;entryDx=0;entryDy=0;entryPerimeter=0;" edge="1" parent="1" source="-idm0U2G1IzuPb4QEbFN-138" target="-idm0U2G1IzuPb4QEbFN-50">
          <mxGeometry relative="1" as="geometry" />
        </mxCell>
        <mxCell id="-idm0U2G1IzuPb4QEbFN-152" value="Client" style="html=1;whiteSpace=wrap;" vertex="1" parent="1">
          <mxGeometry x="670" y="60" width="110" height="30" as="geometry" />
        </mxCell>
        <mxCell id="-idm0U2G1IzuPb4QEbFN-153" style="edgeStyle=orthogonalEdgeStyle;rounded=0;orthogonalLoop=1;jettySize=auto;html=1;exitX=0.75;exitY=1;exitDx=0;exitDy=0;entryX=0.182;entryY=0;entryDx=0;entryDy=0;entryPerimeter=0;" edge="1" parent="1" source="-idm0U2G1IzuPb4QEbFN-125" target="-idm0U2G1IzuPb4QEbFN-152">
          <mxGeometry relative="1" as="geometry" />
        </mxCell>
        <mxCell id="-idm0U2G1IzuPb4QEbFN-154" style="edgeStyle=orthogonalEdgeStyle;rounded=0;orthogonalLoop=1;jettySize=auto;html=1;exitX=0.5;exitY=1;exitDx=0;exitDy=0;entryX=0.181;entryY=-0.025;entryDx=0;entryDy=0;entryPerimeter=0;" edge="1" parent="1" source="-idm0U2G1IzuPb4QEbFN-152" target="-idm0U2G1IzuPb4QEbFN-69">
          <mxGeometry relative="1" as="geometry" />
        </mxCell>
        <mxCell id="-idm0U2G1IzuPb4QEbFN-157" style="edgeStyle=orthogonalEdgeStyle;rounded=0;orthogonalLoop=1;jettySize=auto;html=1;exitX=0.25;exitY=1;exitDx=0;exitDy=0;" edge="1" parent="1" source="-idm0U2G1IzuPb4QEbFN-156" target="-idm0U2G1IzuPb4QEbFN-86">
          <mxGeometry relative="1" as="geometry" />
        </mxCell>
        <mxCell id="-idm0U2G1IzuPb4QEbFN-156" value="Controle technique" style="html=1;whiteSpace=wrap;" vertex="1" parent="1">
          <mxGeometry x="315" y="153" width="110" height="27" as="geometry" />
        </mxCell>
        <mxCell id="-idm0U2G1IzuPb4QEbFN-158" value="Modification" style="swimlane;fontStyle=1;align=center;verticalAlign=top;childLayout=stackLayout;horizontal=1;startSize=26;horizontalStack=0;resizeParent=1;resizeParentMax=0;resizeLast=0;collapsible=1;marginBottom=0;whiteSpace=wrap;html=1;" vertex="1" parent="1">
          <mxGeometry x="670" y="339" width="160" height="138" as="geometry" />
        </mxCell>
        <mxCell id="-idm0U2G1IzuPb4QEbFN-159" value="Amende" style="text;strokeColor=none;fillColor=none;align=left;verticalAlign=top;spacingLeft=4;spacingRight=4;overflow=hidden;rotatable=0;points=[[0,0.5],[1,0.5]];portConstraint=eastwest;whiteSpace=wrap;html=1;" vertex="1" parent="-idm0U2G1IzuPb4QEbFN-158">
          <mxGeometry y="26" width="160" height="26" as="geometry" />
        </mxCell>
        <mxCell id="-idm0U2G1IzuPb4QEbFN-163" value="Les codes des articles" style="text;strokeColor=none;fillColor=none;align=left;verticalAlign=top;spacingLeft=4;spacingRight=4;overflow=hidden;rotatable=0;points=[[0,0.5],[1,0.5]];portConstraint=eastwest;whiteSpace=wrap;html=1;" vertex="1" parent="-idm0U2G1IzuPb4QEbFN-158">
          <mxGeometry y="52" width="160" height="26" as="geometry" />
        </mxCell>
        <mxCell id="-idm0U2G1IzuPb4QEbFN-164" value="Autre caractéristique" style="text;strokeColor=none;fillColor=none;align=left;verticalAlign=top;spacingLeft=4;spacingRight=4;overflow=hidden;rotatable=0;points=[[0,0.5],[1,0.5]];portConstraint=eastwest;whiteSpace=wrap;html=1;" vertex="1" parent="-idm0U2G1IzuPb4QEbFN-158">
          <mxGeometry y="78" width="160" height="26" as="geometry" />
        </mxCell>
        <mxCell id="-idm0U2G1IzuPb4QEbFN-160" value="" style="line;strokeWidth=1;fillColor=none;align=left;verticalAlign=middle;spacingTop=-1;spacingLeft=3;spacingRight=3;rotatable=0;labelPosition=right;points=[];portConstraint=eastwest;strokeColor=inherit;" vertex="1" parent="-idm0U2G1IzuPb4QEbFN-158">
          <mxGeometry y="104" width="160" height="8" as="geometry" />
        </mxCell>
        <mxCell id="-idm0U2G1IzuPb4QEbFN-161" value="+ method(type): type" style="text;strokeColor=none;fillColor=none;align=left;verticalAlign=top;spacingLeft=4;spacingRight=4;overflow=hidden;rotatable=0;points=[[0,0.5],[1,0.5]];portConstraint=eastwest;whiteSpace=wrap;html=1;" vertex="1" parent="-idm0U2G1IzuPb4QEbFN-158">
          <mxGeometry y="112" width="160" height="26" as="geometry" />
        </mxCell>
        <mxCell id="-idm0U2G1IzuPb4QEbFN-162" style="edgeStyle=orthogonalEdgeStyle;rounded=0;orthogonalLoop=1;jettySize=auto;html=1;entryX=0.25;entryY=0;entryDx=0;entryDy=0;exitX=0.199;exitY=1.012;exitDx=0;exitDy=0;exitPerimeter=0;" edge="1" parent="1" source="-idm0U2G1IzuPb4QEbFN-72" target="-idm0U2G1IzuPb4QEbFN-158">
          <mxGeometry relative="1" as="geometry">
            <mxPoint x="690" y="300" as="sourcePoint" />
          </mxGeometry>
        </mxCell>
        <mxCell id="-idm0U2G1IzuPb4QEbFN-174" value="" style="edgeStyle=orthogonalEdgeStyle;rounded=0;orthogonalLoop=1;jettySize=auto;html=1;" edge="1" parent="1" source="-idm0U2G1IzuPb4QEbFN-168" target="-idm0U2G1IzuPb4QEbFN-53">
          <mxGeometry relative="1" as="geometry">
            <Array as="points">
              <mxPoint x="550" y="340" />
              <mxPoint x="540" y="340" />
              <mxPoint x="540" y="300" />
              <mxPoint x="550" y="300" />
            </Array>
          </mxGeometry>
        </mxCell>
        <mxCell id="-idm0U2G1IzuPb4QEbFN-168" value="Suivie de facturation" style="swimlane;fontStyle=1;align=center;verticalAlign=top;childLayout=stackLayout;horizontal=1;startSize=26;horizontalStack=0;resizeParent=1;resizeParentMax=0;resizeLast=0;collapsible=1;marginBottom=0;whiteSpace=wrap;html=1;" vertex="1" parent="1">
          <mxGeometry x="470" y="390" width="160" height="162" as="geometry" />
        </mxCell>
        <mxCell id="-idm0U2G1IzuPb4QEbFN-169" value="Coût réel" style="text;strokeColor=none;fillColor=none;align=left;verticalAlign=top;spacingLeft=4;spacingRight=4;overflow=hidden;rotatable=0;points=[[0,0.5],[1,0.5]];portConstraint=eastwest;whiteSpace=wrap;html=1;" vertex="1" parent="-idm0U2G1IzuPb4QEbFN-168">
          <mxGeometry y="26" width="160" height="26" as="geometry" />
        </mxCell>
        <mxCell id="-idm0U2G1IzuPb4QEbFN-172" value="Gestion du nombre d&#39;heure passées" style="text;strokeColor=none;fillColor=none;align=left;verticalAlign=top;spacingLeft=4;spacingRight=4;overflow=hidden;rotatable=0;points=[[0,0.5],[1,0.5]];portConstraint=eastwest;whiteSpace=wrap;html=1;" vertex="1" parent="-idm0U2G1IzuPb4QEbFN-168">
          <mxGeometry y="52" width="160" height="38" as="geometry" />
        </mxCell>
        <mxCell id="-idm0U2G1IzuPb4QEbFN-173" value="Valeur d&#39;achat des matiere premiere" style="text;strokeColor=none;fillColor=none;align=left;verticalAlign=top;spacingLeft=4;spacingRight=4;overflow=hidden;rotatable=0;points=[[0,0.5],[1,0.5]];portConstraint=eastwest;whiteSpace=wrap;html=1;" vertex="1" parent="-idm0U2G1IzuPb4QEbFN-168">
          <mxGeometry y="90" width="160" height="38" as="geometry" />
        </mxCell>
        <mxCell id="-idm0U2G1IzuPb4QEbFN-170" value="" style="line;strokeWidth=1;fillColor=none;align=left;verticalAlign=middle;spacingTop=-1;spacingLeft=3;spacingRight=3;rotatable=0;labelPosition=right;points=[];portConstraint=eastwest;strokeColor=inherit;" vertex="1" parent="-idm0U2G1IzuPb4QEbFN-168">
          <mxGeometry y="128" width="160" height="8" as="geometry" />
        </mxCell>
        <mxCell id="-idm0U2G1IzuPb4QEbFN-171" value="+ method(type): type" style="text;strokeColor=none;fillColor=none;align=left;verticalAlign=top;spacingLeft=4;spacingRight=4;overflow=hidden;rotatable=0;points=[[0,0.5],[1,0.5]];portConstraint=eastwest;whiteSpace=wrap;html=1;" vertex="1" parent="-idm0U2G1IzuPb4QEbFN-168">
          <mxGeometry y="136" width="160" height="26" as="geometry" />
        </mxCell>
      </root>
    </mxGraphModel>
  </diagram>
</mxfile>
